<svg xmlns="http://www.w3.org/2000/svg" xmlns:xlink="http://www.w3.org/1999/xlink" viewBox="0 0 443.74 75.13"><defs><style>.cls-1{fill:none;}.cls-2{isolation:isolate;}.cls-3{fill:#231f20;}.cls-4{fill:#008db5;}.cls-5{fill:#007da5;fill-opacity:0.3;}.cls-10,.cls-5,.cls-8{mix-blend-mode:multiply;}.cls-6{fill:#00c1de;}.cls-7{clip-path:url(#clip-path);}.cls-8{fill:url(#linear-gradient);}.cls-9{clip-path:url(#clip-path-2);}.cls-10{fill:url(#linear-gradient-2);}</style><clipPath id="clip-path"><path class="cls-1" d="M67.23,52.66,10.55,27.72s-.67.38-.67,2.9c0,3.79.27,10.3.27,13.69,0,2.14,1.28,2.22,2,2.61.59.31,40.15,16.38,40.15,16.38Z"/></clipPath><linearGradient id="linear-gradient" x1="4101.11" y1="-953.5" x2="4146.97" y2="-964.85" gradientTransform="matrix(-0.7, 0.48, 0.8, 0.88, 3702.4, -1083.63)" gradientUnits="userSpaceOnUse"><stop offset="0" stop-color="#00a6ce"/><stop offset="0.11" stop-color="#00a6ce" stop-opacity="0.97"/><stop offset="0.25" stop-color="#00a6ce" stop-opacity="0.9"/><stop offset="0.41" stop-color="#00a6ce" stop-opacity="0.77"/><stop offset="0.58" stop-color="#00a6ce" stop-opacity="0.59"/><stop offset="0.76" stop-color="#00a6ce" stop-opacity="0.37"/><stop offset="0.94" stop-color="#00a6ce" stop-opacity="0.09"/><stop offset="1" stop-color="#00a6ce" stop-opacity="0"/></linearGradient><clipPath id="clip-path-2"><path class="cls-1" d="M31.09,19.5,93.45,48.23s1.18-.45,1.18-3V32.15c0-2.14-.68-2.66-2-3.11C92,28.82,52.34,11.76,52.34,11.76Z"/></clipPath><linearGradient id="linear-gradient-2" x1="3062.85" y1="-1715.77" x2="3109.54" y2="-1727.34" gradientTransform="matrix(-0.07, 0.91, 1.06, 0.41, 2120.3, -2091.08)" xlink:href="#linear-gradient"/></defs><title>Datamine_rgb</title><g class="cls-2"><g id="Layer_1" data-name="Layer 1"><path class="cls-3" d="M152.87,37.68A19.18,19.18,0,0,1,151.5,45a17,17,0,0,1-3.85,5.79,17.41,17.41,0,0,1-6,3.81A21.18,21.18,0,0,1,133.91,56H119.72V19.42h14.19a21,21,0,0,1,7.76,1.38,17.71,17.71,0,0,1,6,3.81,17,17,0,0,1,3.85,5.78A19.15,19.15,0,0,1,152.87,37.68Zm-8.68,0a15.82,15.82,0,0,0-.7-4.89,10.39,10.39,0,0,0-2-3.7,8.75,8.75,0,0,0-3.22-2.33,11,11,0,0,0-4.34-.82h-5.66v23.5h5.66a10.84,10.84,0,0,0,4.34-.82,8.75,8.75,0,0,0,3.22-2.33,10.39,10.39,0,0,0,2-3.7A15.91,15.91,0,0,0,144.19,37.68Z"/><path class="cls-3" d="M197.45,56h-6.57a3,3,0,0,1-1.82-.52,2.61,2.61,0,0,1-1-1.31l-2.16-6.37H172l-2.15,6.37a2.88,2.88,0,0,1-1,1.26,2.81,2.81,0,0,1-1.78.57h-6.62l14.14-36.54h8.68ZM174,42h10L180.6,32c-.22-.64-.47-1.39-.77-2.25S179.25,28,179,27c-.27,1-.54,2-.83,2.83s-.55,1.62-.8,2.26Z"/><path class="cls-3" d="M231,19.42v6.72H220.67V56h-8.48V26.14H201.91V19.42Z"/><path class="cls-3" d="M272.47,56H265.9a3,3,0,0,1-1.82-.52,2.72,2.72,0,0,1-1-1.31l-2.15-6.37H247.05l-2.16,6.37A2.93,2.93,0,0,1,242.13,56h-6.62l14.14-36.54h8.68ZM249,42h10l-3.36-10c-.22-.64-.47-1.39-.76-2.25S254.28,28,254,27c-.27,1-.54,2-.83,2.83s-.55,1.62-.8,2.26Z"/><path class="cls-3" d="M303.1,41.24c.31.68.6,1.38.89,2.1.28-.73.58-1.45.9-2.14s.64-1.37,1-2l9.38-18.48a3.28,3.28,0,0,1,.51-.74,1.89,1.89,0,0,1,.59-.39,2.13,2.13,0,0,1,.74-.12h7.43V56h-7.47v-21c0-1,.05-2.12.15-3.31l-9.68,18.79a3.17,3.17,0,0,1-1.21,1.32,3.28,3.28,0,0,1-1.74.46h-1.16a3.28,3.28,0,0,1-1.74-.46,3.19,3.19,0,0,1-1.22-1.32l-9.73-18.81c.07.59.12,1.17.16,1.74s0,1.11,0,1.59V56h-7.47V19.45h7.44a2.17,2.17,0,0,1,.74.12,2,2,0,0,1,.59.39,3.63,3.63,0,0,1,.51.74l9.4,18.55C302.47,39.89,302.79,40.55,303.1,41.24Z"/><path class="cls-3" d="M347.84,56h-8.52V19.42h8.52Z"/><path class="cls-3" d="M368,19.47a2.63,2.63,0,0,1,.67.19,2.11,2.11,0,0,1,.58.39,7.55,7.55,0,0,1,.63.68l17.35,21.94c-.07-.7-.12-1.39-.15-2.05s-.05-1.28-.05-1.86V19.42h7.47V56h-4.41a4.07,4.07,0,0,1-1.66-.3,3.55,3.55,0,0,1-1.3-1.11L369.93,32.79c.05.63.09,1.26.13,1.87s.05,1.18.05,1.71V56h-7.48V19.42h4.47A7.88,7.88,0,0,1,368,19.47Z"/><path class="cls-3" d="M432.09,19.42v6.52h-15v8.53h11.48v6.27H417.1v8.7h15V56H408.57V19.42Z"/><path class="cls-4" d="M31.09,19.5,91.26,47.22l2.87-1.91V30.14s.11-.36-1.19-1-40.6-17.42-40.6-17.42Z"/><path class="cls-5" d="M84.65,25.59s2.16,13-21.79,8.51C65.93,35.49,93,48,93,48l1.09-17.89-1.19-1Z"/><polygon class="cls-4" points="67.23 52.66 12.91 28.74 10.04 30.64 11.1 45.97 11.83 46.77 52.32 63.3 67.23 52.66"/><path class="cls-5" d="M34.12,38.08C31,37.85,14,43.7,26.47,52.84c-5.24-2-8.46-3.6-13.76-5.69s.54-8.06.54-8.06l12.68-4.53S33.17,37.66,34.12,38.08Z"/><path class="cls-6" d="M10,44.05V30.62c0-2.47,0-3.31,2.16-4.16,2.64-1,40.14-14.7,40.14-14.7l22,9.45C28.27,37.84,22.69,39.89,12.53,43.76c-2.49,1-.92,2.92.18,3.39C11.1,46.46,10,46,10,44.05Z"/><g class="cls-7"><path class="cls-8" d="M19.93,82.43C44.22,96.06,69.19,91.5,75.7,72.25S67.81,26.34,43.52,12.71-1.52,3.64-8,22.9-4.36,68.81,19.93,82.43Z"/></g><path class="cls-6" d="M94.59,31.33c0,3.37,0,10.47,0,13.67,0,2.58-.43,3.2-2.72,3.79C90,49.28,52.32,63.3,52.32,63.3L29.81,54.14S87,33.22,92.38,31.26c2.79-1,.83-2.09-.31-2.49C94.13,29.49,94.59,30.27,94.59,31.33Z"/><g class="cls-9"><path class="cls-10" d="M86.59,73.84c23.25-.86,34.34-20.68,24.77-44.25s-36.19-42-59.45-41.11C39.34-11,17.74,9.56,27.15,32.73,36.72,56.3,63.34,74.71,86.59,73.84Z"/></g></g></g></svg>