<svg version="1.1" id="Layer_1" xmlns="http://www.w3.org/2000/svg" xmlns:xlink="http://www.w3.org/1999/xlink" x="0px" y="0px"
	 width="100%" viewBox="0 0 1024 1024" enable-background="new 0 0 1024 1024" xml:space="preserve">
<path fill="#000000" opacity="1.000000" stroke="none" 
	d="
M524.000000,322.695801 
	C589.652893,322.700836 654.807373,322.448181 719.958069,322.827393 
	C749.658508,323.000244 773.286865,335.892151 789.979065,360.555206 
	C798.943176,373.799835 803.434326,388.642212 803.421936,404.800446 
	C803.366516,476.951782 803.480530,549.103333 803.363220,621.254517 
	C803.300659,659.718872 775.518372,693.388062 737.706482,701.281067 
	C731.338623,702.610352 724.913757,703.328003 718.381348,703.325012 
	C629.233459,703.284119 540.085266,703.161987 450.938080,703.402222 
	C433.476837,703.449280 420.030396,697.061523 410.035034,682.833557 
	C404.867249,675.477539 399.584595,668.169312 393.875214,661.233459 
	C382.128296,646.963013 366.954407,637.679688 348.542114,631.492859 
	C350.634857,634.985962 352.367126,637.694641 353.919922,640.502563 
	C359.106628,649.881409 363.583557,659.432739 363.408081,670.583496 
	C363.262299,679.843140 359.371155,686.902527 352.017975,692.197510 
	C343.801636,698.114075 334.250275,700.254456 324.473724,701.799927 
	C302.522491,705.269897 281.464661,702.930847 262.427307,690.874268 
	C237.168991,674.878052 222.911591,651.865356 222.751465,621.669678 
	C222.370621,549.853455 222.987976,478.031158 222.459976,406.216797 
	C222.137375,362.340118 257.945557,322.795197 306.047272,322.726105 
	C378.531372,322.622040 451.015747,322.697174 524.000000,322.695801 
M245.727737,655.763977 
	C249.119141,661.139832 252.924927,666.174194 257.630920,670.494629 
	C279.061890,690.169800 304.220947,693.235657 331.339325,686.730469 
	C350.061035,682.239441 354.259399,673.179260 346.528839,655.429932 
	C342.496704,646.172241 336.495667,638.175354 330.664429,630.056641 
	C325.462952,622.814758 320.287537,615.554199 315.095886,608.295349 
	C316.959595,606.920349 318.185944,607.742126 319.395905,608.128967 
	C331.288361,611.932190 343.202759,615.670166 355.052795,619.601746 
	C372.616638,625.429016 387.830109,634.963379 400.559967,648.496094 
	C408.139099,656.553162 414.320068,665.650757 420.629364,674.643066 
	C428.004150,685.154053 437.494934,689.947083 450.673950,689.898682 
	C539.498535,689.572571 628.324768,689.726318 717.150513,689.714355 
	C720.648743,689.713867 724.185974,689.926147 727.639282,689.502991 
	C764.212158,685.021851 790.568054,655.080200 790.595398,617.943176 
	C790.646851,548.115845 790.651550,478.288452 790.568054,408.461212 
	C790.562134,403.496918 790.100891,398.449280 789.132629,393.583435 
	C782.309570,359.296082 754.196106,336.311798 719.080444,336.293488 
	C632.421204,336.248260 545.761963,336.275940 459.102722,336.280518 
	C407.607147,336.283234 356.110443,336.102448 304.616547,336.402649 
	C283.878143,336.523560 266.526672,344.995239 252.857529,360.635712 
	C241.046249,374.150360 235.844650,390.026123 235.872009,407.934845 
	C235.977219,476.762115 236.064102,545.590332 235.760345,614.416443 
	C235.696213,628.951233 238.102036,642.513794 245.727737,655.763977 
z"/>
<path fill="#000000" opacity="1.000000" stroke="none" 
	d="
M728.030212,452.887085 
	C739.978943,462.836182 744.695190,476.067352 745.964355,490.493835 
	C747.588928,508.959564 745.520813,527.069885 737.690796,544.188660 
	C726.092957,569.544983 705.586060,581.451294 678.492554,583.237549 
	C669.149780,583.853577 659.840698,583.209229 650.744629,580.804260 
	C631.541687,575.726929 620.400208,562.789795 616.112671,543.913025 
	C611.548767,523.819397 612.802124,503.799591 619.747314,484.424622 
	C628.424988,460.216583 651.748108,443.889557 677.417847,442.565521 
	C688.468140,441.995575 699.352173,442.070160 710.135925,444.641357 
	C716.520874,446.163757 722.431152,448.772430 728.030212,452.887085 
M703.620544,505.221558 
	C703.843079,500.716766 703.476562,496.260376 702.687317,491.818787 
	C700.900574,481.764252 694.730713,476.417938 684.560303,476.050385 
	C674.240051,475.677368 666.786133,480.387604 662.558167,489.461853 
	C655.094299,505.481415 653.907166,522.100220 660.017761,538.849060 
	C663.164673,547.474548 671.763306,551.361328 680.719727,549.078064 
	C689.522400,546.833984 694.132935,540.356934 697.708923,532.762695 
	C701.676331,524.337280 702.617249,515.231079 703.620544,505.221558 
z"/>
<path fill="#000000" opacity="1.000000" stroke="none" 
	d="
M489.049438,466.335083 
	C495.103271,488.702362 487.123657,506.751190 466.663177,516.964172 
	C452.090149,524.238342 436.349030,526.697388 420.256897,527.302368 
	C414.069183,527.535034 413.313385,528.389893 414.947021,534.451843 
	C417.244843,542.978577 422.142609,548.872375 431.153564,550.903870 
	C439.694946,552.829529 447.179169,551.240417 452.738617,544.274902 
	C456.224365,539.907532 459.627777,536.729187 465.737213,538.739441 
	C472.257050,540.884644 477.523254,544.326233 479.396515,551.292725 
	C481.624786,559.579712 478.748718,566.401794 472.447845,571.794189 
	C465.658936,577.604309 457.364410,580.089111 448.772614,581.699402 
	C435.340179,584.216919 421.977997,584.138428 408.745453,580.398193 
	C388.174164,574.583557 374.068726,558.019043 371.582672,536.791199 
	C368.798004,513.013794 372.908722,490.693695 386.123840,470.484833 
	C397.398407,453.243530 414.023773,444.897308 434.100189,442.703400 
	C445.639679,441.442352 457.032288,442.033936 468.070557,445.930756 
	C478.014465,449.441223 485.328308,455.783386 489.049438,466.335083 
M434.829193,503.430145 
	C437.687469,502.432709 440.296722,500.967590 442.641418,499.071136 
	C448.453064,494.370514 449.627014,485.227142 445.150726,479.865601 
	C440.908295,474.784180 431.865997,474.649445 426.203979,479.608063 
	C424.183960,481.377106 422.576263,483.484955 421.207916,485.798737 
	C418.102112,491.050537 416.841187,496.917786 415.509491,502.754852 
	C414.879852,505.514648 416.036865,506.894073 418.949005,506.629578 
	C424.096161,506.162048 429.167297,505.314758 434.829193,503.430145 
z"/>
<path fill="#000000" opacity="1.000000" stroke="none" 
	d="
M308.603149,433.689026 
	C311.171631,427.123505 313.564545,420.906647 316.059204,414.730865 
	C317.783600,410.461823 320.622772,408.474274 325.650177,408.532898 
	C340.949982,408.711426 347.183807,414.622620 347.324036,430.030396 
	C347.355865,433.529633 347.423492,437.037720 347.222168,440.527130 
	C347.048401,443.539337 348.176819,444.758636 351.224457,444.702637 
	C357.555481,444.586243 363.892914,444.791962 370.222748,444.647491 
	C374.719574,444.544891 376.631317,446.433716 376.318085,450.957581 
	C375.915924,456.765076 375.803589,462.600952 374.307800,468.269806 
	C372.787903,474.030060 368.982574,477.233246 363.130066,478.278992 
	C357.997192,479.196228 352.843079,479.074615 347.679993,479.024963 
	C345.268768,479.001801 343.480713,479.495758 343.317474,482.499634 
	C342.288574,501.433990 338.908752,520.200745 339.271118,539.236450 
	C339.445404,548.392822 343.688141,550.731079 351.671417,546.054260 
	C352.102356,545.801819 352.529510,545.539246 352.937286,545.251465 
	C355.343597,543.553406 357.622437,540.890259 360.925690,542.656128 
	C364.378204,544.501892 364.374115,548.075806 364.321014,551.456116 
	C364.271362,554.616760 364.490723,557.842834 363.940796,560.923950 
	C361.571167,574.201355 354.693451,580.725281 339.797394,582.888184 
	C330.702972,584.208801 321.517303,583.909729 312.765381,580.220337 
	C304.795258,576.860352 300.039581,570.832581 297.724945,562.669006 
	C294.784943,552.299866 296.374847,541.828003 297.195648,531.414062 
	C298.476135,515.168518 300.059998,498.946899 301.524750,482.715973 
	C301.727051,480.474335 300.885315,479.190155 298.495178,479.190735 
	C295.995544,479.191345 293.495941,479.169464 290.996307,479.160309 
	C287.477325,479.147430 285.402161,477.288666 285.965607,473.881683 
	C286.892303,468.278137 286.356750,462.603577 287.434601,456.994354 
	C288.656952,450.633392 292.094360,446.350311 298.305237,445.581299 
	C304.001221,444.876068 306.270325,441.741150 307.479248,436.879669 
	C307.719025,435.915619 308.135834,434.995544 308.603149,433.689026 
z"/>
<path fill="#000000" opacity="1.000000" stroke="none" 
	d="
M495.789734,568.909302 
	C491.741333,558.266235 492.327423,547.579102 493.107574,536.958618 
	C494.483185,518.232117 496.142944,499.525970 497.756012,480.817535 
	C499.941895,455.465027 501.473785,430.070709 502.853943,404.664398 
	C503.169983,398.847290 504.367188,397.861725 510.288239,397.811340 
	C515.277344,397.768890 520.243469,397.759796 525.229431,398.520508 
	C537.696167,400.422699 543.978027,407.363403 544.277649,420.073547 
	C544.572693,432.587158 542.792236,444.973877 541.892944,457.411438 
	C540.898193,471.169830 539.424805,484.893280 538.390808,498.649323 
	C537.518616,510.252716 536.086304,521.819031 536.037598,533.482544 
	C535.988647,545.191589 536.697083,546.443909 547.647888,550.690002 
	C550.087830,551.636108 550.367615,553.258789 550.340271,555.368774 
	C550.079041,575.533142 536.917236,584.555298 517.017761,582.916260 
	C507.711456,582.149780 499.979584,578.421204 495.789734,568.909302 
z"/>
<path fill="#000000" opacity="1.000000" stroke="none" 
	d="
M569.707764,580.653198 
	C557.055298,575.054138 555.492920,563.877136 554.862671,552.544739 
	C554.158569,539.883240 556.280334,527.323914 557.214417,514.724609 
	C558.270996,500.473145 559.670532,486.246185 560.642029,471.989563 
	C562.179199,449.430786 563.502747,426.857361 564.871582,404.287354 
	C565.136841,399.912811 566.957275,397.569977 571.696106,397.731934 
	C577.179504,397.919342 582.650635,397.744690 588.123169,398.609070 
	C599.476746,400.402252 605.928894,407.438049 606.284790,418.884674 
	C606.694458,432.061981 604.866760,445.110596 603.891357,458.202881 
	C602.532959,476.434601 600.882996,494.645020 599.296448,512.859192 
	C598.603027,520.819519 597.990662,528.778259 598.168945,536.776184 
	C598.350342,544.911621 600.389526,548.022949 608.066284,550.215820 
	C611.510864,551.199890 612.484985,552.843689 612.399658,556.204834 
	C611.895935,576.044556 598.111633,584.465149 579.272766,582.931885 
	C576.164246,582.678833 573.126709,581.552063 569.707764,580.653198 
z"/>
</svg>